<svg width="801" height="744" viewBox="0 0 801 744" fill="none" xmlns="http://www.w3.org/2000/svg">
<circle cx="364.648" cy="364.648" r="364.648" fill="#F1F1F1"/>
<circle cx="361.668" cy="365.271" r="217.05" fill="#F1F1F1" stroke="#C4C4C4" stroke-width="2"/>
<circle cx="361.667" cy="365.271" r="154.75" fill="#FFFEFF" stroke="#C4C4C4" stroke-width="2"/>
<path d="M361.666 250.765C361.666 248.478 359.81 246.616 357.525 246.696C328.908 247.695 301.563 259.017 280.589 278.647C259.616 298.277 246.512 324.814 243.624 353.302C243.393 355.577 245.128 357.552 247.41 357.703V357.703C249.692 357.854 251.657 356.125 251.894 353.85C254.639 327.46 266.811 302.887 286.249 284.694C305.688 266.5 331.011 255.979 357.525 254.984C359.81 254.898 361.666 253.052 361.666 250.765V250.765Z" fill="#C4C4C4"/>
<rect x="533.448" y="596.501" width="62.9654" height="205.218" rx="13" transform="rotate(-45 533.448 596.501)" fill="#F1F1F1" stroke="#C4C4C4" stroke-width="2"/>
<rect x="602.749" y="613.624" width="9.89854" height="82.9965" rx="4.94927" transform="rotate(-45 602.749 613.624)" fill="white"/>
<rect x="520.449" y="546.168" width="10.1609" height="40.6436" transform="rotate(-45 520.449 546.168)" fill="#C4C4C4"/>
<rect x="628.265" y="339.685" width="101.609" height="10.1609" rx="2" fill="#C4C4C4"/>
<rect y="423.74" width="101.609" height="10.1609" rx="2" fill="#C4C4C4"/>
<rect x="750.195" y="339.685" width="50.8045" height="10.1609" rx="2" fill="#C4C4C4"/>
<rect x="653.667" y="376.965" width="50.8045" height="10.1609" rx="2" fill="#C4C4C4"/>
<rect x="25.4014" y="461.02" width="50.8045" height="10.1609" rx="2" fill="#C4C4C4"/>
</svg>
