<svg width="30" height="30" viewBox="0 0 30 30" fill="none" xmlns="http://www.w3.org/2000/svg">
<path d="M15 30C23.2843 30 30 23.2843 30 15C30 6.71573 23.2843 0 15 0C6.71573 0 0 6.71573 0 15C0 23.2843 6.71573 30 15 30Z" fill="#1190CC"/>
<path d="M9 18.4996V20.9999H11.5003L18.878 13.6222L16.3777 11.1218L9 18.4996Z" fill="white"/>
<path d="M20.8045 10.7519L19.2476 9.19503C18.9876 8.93499 18.5642 8.93499 18.3041 9.19503L17.084 10.4152L19.5843 12.9155L20.8045 11.6954C21.0646 11.4353 21.0646 11.0119 20.8045 10.7519Z" fill="white"/>
</svg>
