<svg width="20" height="20" viewBox="0 0 20 20" fill="none" xmlns="http://www.w3.org/2000/svg">
<path d="M14.9935 6.71237C14.6857 6.38776 14.1724 6.37346 13.8473 6.6821L8.67105 11.591L6.20214 9.05615C5.88945 8.73533 5.37675 8.7283 5.05566 9.04104C4.73484 9.35346 4.72808 9.8667 5.0405 10.1875L8.06753 13.2954C8.22616 13.4583 8.43698 13.5405 8.64835 13.5405C8.8489 13.5405 9.04945 13.4664 9.20648 13.3181L14.9633 7.85862C15.2881 7.55049 15.3019 7.03725 14.9935 6.71237Z" fill="#1190CC"/>
<path d="M10 0C4.48594 0 0 4.48594 0 10C0 15.5141 4.48594 20 10 20C15.5141 20 20 15.5141 20 10C20 4.48594 15.5141 0 10 0ZM10 18.3784C5.38027 18.3784 1.6216 14.62 1.6216 10C1.6216 5.38027 5.38023 1.6216 10 1.6216C14.62 1.6216 18.3784 5.38023 18.3784 10C18.3784 14.62 14.62 18.3784 10 18.3784Z" fill="#1190CC"/>
</svg>
