<svg width="40" height="40" viewBox="0 0 40 40" fill="none" xmlns="http://www.w3.org/2000/svg">
<path d="M39.8759 8.94073L38.7946 6.29333C38.3828 5.28503 37.2316 4.60754 35.9305 4.60754H26.8423V2.19086C26.8423 0.982971 25.6399 0 24.1613 0H15.8387C14.3605 0 13.1577 0.982971 13.1577 2.19086V4.60754H4.06984C2.76842 4.60754 1.61721 5.28503 1.20544 6.29333L0.124104 8.94073C-0.122131 9.54346 0.00266818 10.2109 0.457399 10.7263C0.91213 11.2418 1.64785 11.5497 2.42578 11.5497H3.55607L6.04383 36.6751C6.22879 38.5394 8.16578 40 10.4544 40H30.0504C32.3386 40 34.276 38.5394 34.4606 36.6748L36.9484 11.5497H37.5742C38.3522 11.5497 39.0879 11.2418 39.5426 10.7266C39.9973 10.2112 40.1221 9.54346 39.8759 8.94073ZM16.0274 2.34375H23.9726V4.60754H16.0274V2.34375ZM31.6003 36.4859C31.5353 37.1423 30.8545 37.6562 30.0504 37.6562H10.4544C9.65029 37.6562 8.9695 37.1423 8.90449 36.4859L6.43504 11.5497H34.0694L31.6003 36.4859ZM3.04118 9.20593L3.92785 7.03491C3.94803 6.98486 4.0052 6.95129 4.06984 6.95129H35.9305C35.9952 6.95129 36.052 6.98486 36.0725 7.03491L36.9592 9.20593H3.04118Z" fill="white"/>
<path d="M27.0238 36.4029C27.0492 36.4041 27.0742 36.4044 27.0996 36.4044C27.8577 36.4044 28.4915 35.9192 28.5311 35.2936L29.8784 14.1687C29.9195 13.5223 29.3112 12.9709 28.5202 12.9373C27.727 12.9028 27.054 13.4002 27.0125 14.0466L25.6655 35.1715C25.6244 35.8179 26.2324 36.3693 27.0238 36.4029Z" fill="white"/>
<path d="M11.5327 35.2963C11.5745 35.921 12.2075 36.4044 12.9641 36.4044C12.9903 36.4044 13.0172 36.4038 13.0437 36.4026C13.8347 36.3675 14.4412 35.8151 14.3982 35.1688L12.9869 14.0439C12.944 13.3975 12.2676 12.9022 11.4763 12.9376C10.6852 12.9727 10.0788 13.5251 10.1218 14.1715L11.5327 35.2963Z" fill="white"/>
<path d="M20.0159 36.4044C20.8084 36.4044 21.4507 35.8798 21.4507 35.2325V14.1077C21.4507 13.4604 20.8084 12.9358 20.0159 12.9358C19.2234 12.9358 18.5811 13.4604 18.5811 14.1077V35.2325C18.5811 35.8798 19.2234 36.4044 20.0159 36.4044Z" fill="white"/>
</svg>
