<svg width="961" height="185" viewBox="0 0 961 185" fill="none" xmlns="http://www.w3.org/2000/svg">
<path d="M22.5 184.5C34.6503 184.5 44.5 174.65 44.5 162.5C44.5 150.35 34.6503 140.5 22.5 140.5C10.3497 140.5 0.5 150.35 0.5 162.5C0.5 174.65 10.3497 184.5 22.5 184.5Z" stroke="#1190CC"/>
<path d="M22.5 180C32.165 180 40 172.165 40 162.5C40 152.835 32.165 145 22.5 145C12.835 145 5 152.835 5 162.5C5 172.165 12.835 180 22.5 180Z" fill="#1190CC"/>
<path d="M19.9238 159V157.336H23.2518V169H21.4118V159H19.9238Z" fill="white"/>
<path d="M469.5 114.5C481.65 114.5 491.5 104.65 491.5 92.5C491.5 80.3497 481.65 70.5 469.5 70.5C457.35 70.5 447.5 80.3497 447.5 92.5C447.5 104.65 457.35 114.5 469.5 114.5Z" stroke="#1190CC"/>
<path d="M469.5 110C479.165 110 487 102.165 487 92.5C487 82.835 479.165 75 469.5 75C459.835 75 452 82.835 452 92.5C452 102.165 459.835 110 469.5 110Z" fill="#1190CC"/>
<path d="M466.352 96.5202C467.376 95.6349 468.181 94.9095 468.768 94.3442C469.365 93.7682 469.861 93.1709 470.256 92.5522C470.65 91.9335 470.848 91.3149 470.848 90.6962C470.848 90.0562 470.693 89.5549 470.384 89.1922C470.085 88.8295 469.61 88.6482 468.96 88.6482C468.33 88.6482 467.84 88.8509 467.488 89.2562C467.146 89.6509 466.965 90.1842 466.944 90.8562H465.184C465.216 89.6402 465.578 88.7122 466.272 88.0722C466.976 87.4215 467.866 87.0962 468.944 87.0962C470.106 87.0962 471.013 87.4162 471.664 88.0562C472.325 88.6962 472.656 89.5495 472.656 90.6162C472.656 91.3842 472.458 92.1255 472.064 92.8402C471.68 93.5442 471.216 94.1789 470.672 94.7442C470.138 95.2989 469.456 95.9442 468.624 96.6802L467.904 97.3202H472.976V98.8402H465.2V97.5122L466.352 96.5202Z" fill="white"/>
<path d="M938.5 44.5C950.65 44.5 960.5 34.6503 960.5 22.5C960.5 10.3497 950.65 0.5 938.5 0.5C926.35 0.5 916.5 10.3497 916.5 22.5C916.5 34.6503 926.35 44.5 938.5 44.5Z" stroke="#1190CC"/>
<path d="M938.5 40C948.165 40 956 32.165 956 22.5C956 12.835 948.165 5 938.5 5C928.835 5 921 12.835 921 22.5C921 32.165 928.835 40 938.5 40Z" fill="#1190CC"/>
<path d="M934.178 20.216C934.242 19.224 934.621 18.4507 935.314 17.896C936.018 17.3413 936.914 17.064 938.002 17.064C938.749 17.064 939.394 17.1973 939.938 17.464C940.482 17.7307 940.893 18.0933 941.17 18.552C941.447 19.0107 941.586 19.528 941.586 20.104C941.586 20.7653 941.41 21.3307 941.058 21.8C940.706 22.2693 940.285 22.584 939.794 22.744V22.808C940.423 23 940.914 23.352 941.266 23.864C941.618 24.3653 941.794 25.0107 941.794 25.8C941.794 26.4293 941.65 26.9893 941.362 27.48C941.074 27.9707 940.647 28.36 940.082 28.648C939.517 28.9253 938.839 29.064 938.05 29.064C936.898 29.064 935.949 28.7707 935.202 28.184C934.466 27.5867 934.071 26.7333 934.018 25.624H935.778C935.821 26.1893 936.039 26.6533 936.434 27.016C936.829 27.368 937.362 27.544 938.034 27.544C938.685 27.544 939.186 27.368 939.538 27.016C939.89 26.6533 940.066 26.1893 940.066 25.624C940.066 24.8773 939.826 24.3493 939.346 24.04C938.877 23.72 938.151 23.56 937.17 23.56H936.754V22.056H937.186C938.05 22.0453 938.706 21.9013 939.154 21.624C939.613 21.3467 939.842 20.9093 939.842 20.312C939.842 19.8 939.677 19.3947 939.346 19.096C939.015 18.7867 938.546 18.632 937.938 18.632C937.341 18.632 936.877 18.7867 936.546 19.096C936.215 19.3947 936.018 19.768 935.954 20.216H934.178Z" fill="white"/>
</svg>
